<svg xmlns="http://www.w3.org/2000/svg" viewBox="0 0 100 100" width="180" height="180" role="img"><polygon class="ink" points="50,16 84,38 16,38"></polygon><polygon class="faint" points="50,22 74,38 26,38"></polygon><line class="hatch" x1="40" y1="30" x2="46" y2="38"></line><line class="hatch" x1="50" y1="26" x2="56" y2="38"></line><line class="hatch" x1="58" y1="29" x2="63" y2="38"></line><circle class="ink" cx="16" cy="38" r="2"></circle><circle class="ink" cx="84" cy="38" r="2"></circle><circle class="ink" cx="50" cy="15" r="2"></circle><rect class="ink" x="16" y="38" width="68" height="5"></rect><rect class="faint" x="20" y="46" width="6" height="30"></rect><rect class="faint" x="31" y="46" width="6" height="30"></rect><rect class="faint" x="42" y="46" width="6" height="30"></rect><rect class="faint" x="53" y="46" width="6" height="30"></rect><rect class="faint" x="64" y="46" width="6" height="30"></rect><rect class="faint" x="74" y="46" width="6" height="30"></rect><line class="fine" x1="23" y1="47" x2="23" y2="75" opacity="0.5"></line><line class="fine" x1="34" y1="47" x2="34" y2="75" opacity="0.5"></line><line class="fine" x1="45" y1="47" x2="45" y2="75" opacity="0.5"></line><line class="fine" x1="56" y1="47" x2="56" y2="75" opacity="0.5"></line><line class="fine" x1="67" y1="47" x2="67" y2="75" opacity="0.5"></line><line class="fine" x1="77" y1="47" x2="77" y2="75" opacity="0.5"></line><rect class="ink" x="16" y="44" width="68" height="3"></rect><rect class="ink" x="16" y="76" width="68" height="4"></rect><rect class="ink" x="13" y="80" width="74" height="4"></rect><line class="ink-stroke" x1="9" y1="84" x2="91" y2="84"></line></svg>