<svg xmlns="http://www.w3.org/2000/svg" viewBox="0 0 100 100" width="180" height="180" role="img"><rect class="ink" x="40" y="38" width="20" height="46"></rect><polygon class="faint" points="50,38 60,38 60,84 50,84"></polygon><rect class="ink" x="38" y="32" width="24" height="6"></rect><polygon class="ink" points="50,12 61,32 39,32"></polygon><polygon class="faint" points="50,12 61,32 50,32"></polygon><line class="fine" x1="50" y1="12" x2="50" y2="9"></line><circle class="ink" cx="50" cy="8" r="1.4"></circle><rect class="ink" x="37" y="32" width="2" height="5"></rect><rect class="ink" x="61" y="32" width="2" height="5"></rect><circle class="faint" cx="50" cy="48" r="6.5"></circle><circle class="ink-stroke" cx="50" cy="48" r="6.5"></circle><path class="fine" d="M50 42 v1.5 M56 48 h-1.5 M50 54 v-1.5 M44 48 h1.5" opacity="0.7"></path><line class="fine" x1="50" y1="48" x2="50" y2="44"></line><line class="fine" x1="50" y1="48" x2="53" y2="50"></line><path class="fine" d="M42 60 h16 M42 66 h16 M42 72 h16" opacity="0.45"></path><line class="fine" x1="46" y1="58" x2="46" y2="80" opacity="0.4"></line><line class="fine" x1="54" y1="58" x2="54" y2="80" opacity="0.4"></line><line class="hatch" x1="56" y1="40" x2="56" y2="82"></line><line class="ink-stroke" x1="30" y1="84" x2="70" y2="84"></line></svg>