<svg xmlns="http://www.w3.org/2000/svg" viewBox="0 0 100 100" width="180" height="180" role="img"><path class="ink-stroke" d="M6 50 L30 26 Q50 52 70 26 L94 50"></path><path class="fine" d="M6 54 L30 30 Q50 55 70 30 L94 54" opacity="0.45"></path><rect class="ink" x="27" y="26" width="6" height="42"></rect><rect class="ink" x="67" y="26" width="6" height="42"></rect><path class="fine" d="M27 34 h6 M27 42 h6 M27 50 h6" opacity="0.5"></path><path class="fine" d="M27 38 l6 4 M33 38 l-6 4 M67 38 l6 4 M73 38 l-6 4" opacity="0.45"></path><rect class="ink" x="6" y="64" width="88" height="4"></rect><line class="fine" x1="6" y1="66" x2="94" y2="66" opacity="0.4"></line><path class="fine" d="M14 50 v14 M22 47 v17 M38 44 v20 M50 52 v12 M62 44 v20 M78 47 v17 M86 50 v14" opacity="0.4"></path><path class="hatch" d="M10 78 q5 -2 10 0 t10 0 t10 0 t10 0 t10 0 t10 0 t10 0"></path><line class="ink-stroke" x1="6" y1="68" x2="6" y2="64"></line><line class="ink-stroke" x1="94" y1="68" x2="94" y2="64"></line></svg>