<svg width="32" height="40" viewBox="0 0 32 40" fill="none" xmlns="http://www.w3.org/2000/svg">
  <!-- Pin shape -->
  <path d="M16 0C7.163 0 0 7.163 0 16c0 12 16 24 16 24s16-12 16-24c0-8.837-7.163-16-16-16z" fill="#0891b2"/>
  <circle cx="16" cy="16" r="12" fill="white"/>
  <!-- Condo/townhouse icon -->
  <path d="M8 24V12l4-4 4 4v12H8z" fill="#0891b2"/>
  <path d="M16 24V12l4-4 4 4v12H16z" fill="#0891b2"/>
  <rect x="10" y="14" width="2" height="2" fill="white"/>
  <rect x="10" y="18" width="2" height="2" fill="white"/>
  <rect x="18" y="14" width="2" height="2" fill="white"/>
  <rect x="18" y="18" width="2" height="2" fill="white"/>
</svg>
